<svg width="55" height="53" viewBox="0 0 55 53" fill="none" xmlns="http://www.w3.org/2000/svg">
<g id="Group">
<path id="Vector" d="M41.842 0.267822H13.1545C6.16469 0.267822 0.498291 5.72435 0.498291 12.4553V40.0803C0.498291 46.8113 6.16469 52.2678 13.1545 52.2678H41.842C48.8319 52.2678 54.4983 46.8113 54.4983 40.0803V12.4553C54.4983 5.72435 48.8319 0.267822 41.842 0.267822Z" fill="url(#paint0_radial_215_193)"/>
<path id="Vector_2" d="M41.842 0.267822H13.1545C6.16469 0.267822 0.498291 5.72435 0.498291 12.4553V40.0803C0.498291 46.8113 6.16469 52.2678 13.1545 52.2678H41.842C48.8319 52.2678 54.4983 46.8113 54.4983 40.0803V12.4553C54.4983 5.72435 48.8319 0.267822 41.842 0.267822Z" fill="url(#paint1_radial_215_193)"/>
<path id="Vector_3" d="M27.5002 5.95532C21.7715 5.95532 21.0525 5.97949 18.8026 6.07801C16.557 6.17713 15.0241 6.5194 13.6829 7.02173C12.2954 7.54051 11.1186 8.23459 9.94618 9.36396C8.77274 10.4931 8.05196 11.6264 7.51154 12.9619C6.98842 14.2538 6.63256 15.7305 6.53153 17.892C6.43091 20.0587 6.40454 20.7514 6.40454 26.268C6.40454 31.7847 6.42985 32.4749 6.53195 34.6414C6.63531 36.8039 6.99074 38.28 7.51196 39.5715C8.05112 40.9076 8.77189 42.0409 9.94471 43.1699C11.1169 44.2998 12.2937 44.9955 13.6802 45.5143C15.0224 46.0166 16.5555 46.3589 18.8007 46.458C21.0508 46.5566 21.7692 46.5807 27.4977 46.5807C33.2269 46.5807 33.9437 46.5566 36.1936 46.458C38.4392 46.3589 39.9738 46.0166 41.316 45.5143C42.7029 44.9955 43.878 44.2998 45.05 43.1699C46.2234 42.0409 46.944 40.9076 47.4846 39.5721C48.0031 38.28 48.3592 36.8035 48.4646 34.6419C48.5657 32.4753 48.592 31.7847 48.592 26.268C48.592 20.7514 48.5657 20.0591 48.4646 17.8924C48.3592 15.7299 48.0031 14.254 47.4846 12.9625C46.944 11.6264 46.2234 10.4931 45.05 9.36396C43.8767 8.23418 42.7033 7.5401 41.3147 7.02193C39.97 6.5194 38.4362 6.17693 36.1906 6.07801C33.9405 5.97949 33.2242 5.95532 27.4936 5.95532H27.5002ZM25.6079 9.61584C26.1696 9.61503 26.7963 9.61584 27.5002 9.61584C33.1324 9.61584 33.7998 9.63534 36.024 9.73263C38.0806 9.82323 39.1969 10.1541 39.9404 10.4322C40.9249 10.8003 41.6267 11.2404 42.3645 11.9516C43.1028 12.6625 43.5597 13.3395 43.943 14.2875C44.2318 15.0025 44.5758 16.0774 44.6694 18.0579C44.7705 20.1993 44.7924 20.8424 44.7924 26.2634C44.7924 31.6844 44.7705 32.3276 44.6694 34.4688C44.5754 36.4493 44.2318 37.5242 43.943 38.2394C43.5608 39.1874 43.1028 39.8624 42.3645 40.5729C41.6263 41.2838 40.9253 41.7238 39.9404 42.0921C39.1977 42.3714 38.0806 42.7014 36.024 42.792C33.8003 42.8893 33.1324 42.9105 27.5002 42.9105C21.8677 42.9105 21.2001 42.8893 18.9766 42.792C16.92 42.7006 15.8037 42.3697 15.0595 42.0917C14.0753 41.7234 13.372 41.2834 12.6337 40.5725C11.8955 39.8616 11.4386 39.1862 11.0553 38.2378C10.7665 37.5226 10.4225 36.4476 10.3288 34.4672C10.2278 32.3258 10.2075 31.6827 10.2075 26.2583C10.2075 20.834 10.2278 20.1942 10.3288 18.0528C10.4229 16.0724 10.7665 14.9974 11.0553 14.2814C11.4377 13.3334 11.8955 12.6564 12.6339 11.9455C13.3722 11.2345 14.0753 10.7944 15.0597 10.4255C15.8033 10.1462 16.92 9.81612 18.9766 9.72512C20.9225 9.64042 21.6766 9.61502 25.6079 9.61076V9.61584ZM38.76 12.9885C37.3626 12.9885 36.2288 14.0793 36.2288 15.4252C36.2288 16.7709 37.3626 17.8627 38.76 17.8627C40.1575 17.8627 41.2913 16.7709 41.2913 15.4252C41.2913 14.0795 40.1575 12.9877 38.76 12.9877V12.9885ZM27.5002 15.8365C21.518 15.8365 16.6677 20.5072 16.6677 26.268C16.6677 32.0289 21.518 36.6973 27.5002 36.6973C33.4826 36.6973 38.3312 32.0289 38.3312 26.268C38.3312 20.5074 33.4822 15.8365 27.4998 15.8365H27.5002ZM27.5002 19.4971C31.3833 19.4971 34.5316 22.5283 34.5316 26.268C34.5316 30.0074 31.3833 33.039 27.5002 33.039C23.6168 33.039 20.469 30.0074 20.469 26.268C20.469 22.5283 23.6168 19.4971 27.5002 19.4971Z" fill="white"/>
</g>
<defs>
<radialGradient id="paint0_radial_215_193" cx="0" cy="0" r="1" gradientUnits="userSpaceOnUse" gradientTransform="translate(14.842 56.2728) rotate(-90) scale(51.5359 49.776)">
<stop stop-color="#FFDD55"/>
<stop offset="0.1" stop-color="#FFDD55"/>
<stop offset="0.5" stop-color="#FF543E"/>
<stop offset="1" stop-color="#C837AB"/>
</radialGradient>
<radialGradient id="paint1_radial_215_193" cx="0" cy="0" r="1" gradientUnits="userSpaceOnUse" gradientTransform="translate(-8.54692 4.01365) rotate(78.2575) scale(23.0716 98.4622)">
<stop stop-color="#3771C8"/>
<stop offset="0.128" stop-color="#3771C8"/>
<stop offset="1" stop-color="#6600FF" stop-opacity="0"/>
</radialGradient>
</defs>
</svg>
