<svg width="64" height="62" viewBox="0 0 64 62" fill="none" xmlns="http://www.w3.org/2000/svg">
<g id="LIKE OVER">
<path id="Vector" d="M31.655 40.7275L31.5 40.8801L31.3295 40.7275C23.967 34.151 19.1 29.8022 19.1 25.3924C19.1 22.3406 21.425 20.0518 24.525 20.0518C26.912 20.0518 29.237 21.5777 30.0585 23.6529H32.9415C33.763 21.5777 36.088 20.0518 38.475 20.0518C41.575 20.0518 43.9 22.3406 43.9 25.3924C43.9 29.8022 39.033 34.151 31.655 40.7275ZM38.475 17C35.778 17 33.1895 18.236 31.5 20.1738C29.8105 18.236 27.222 17 24.525 17C19.751 17 16 20.6774 16 25.3924C16 31.145 21.27 35.8599 29.2525 42.9858L31.5 45L33.7475 42.9858C41.73 35.8599 47 31.145 47 25.3924C47 20.6774 43.249 17 38.475 17Z" fill="#FF1B43"/>
</g>
</svg>
